<?xml version="1.0" encoding="UTF-8" standalone="no" ?>
<!DOCTYPE svg PUBLIC "-//W3C//DTD SVG 1.1//EN" "http://www.w3.org/Graphics/SVG/1.1/DTD/svg11.dtd">
<svg xmlns="http://www.w3.org/2000/svg" xmlns:xlink="http://www.w3.org/1999/xlink" version="1.1" width="1080" height="1080" viewBox="0 0 1080 1080" xml:space="preserve">
<desc>Created with Fabric.js 5.2.4</desc>
<defs>
</defs>
<rect x="0" y="0" width="100%" height="100%" fill="transparent"></rect>
<g transform="matrix(1 0 0 1 540 540)" id="1e9fd44f-5aa2-4c82-8b06-5796ee4501c8"  >
<rect style="stroke: none; stroke-width: 1; stroke-dasharray: none; stroke-linecap: butt; stroke-dashoffset: 0; stroke-linejoin: miter; stroke-miterlimit: 4; fill: rgb(255,255,255); fill-rule: nonzero; opacity: 1; visibility: hidden;" vector-effect="non-scaling-stroke"  x="-540" y="-540" rx="0" ry="0" width="1080" height="1080" />
</g>
<g transform="matrix(1 0 0 1 540 540)" id="99798a7d-4333-43df-a0cb-401b90230852"  >
</g>
<g transform="matrix(3.43 0 0 3.43 611.01 415.73)"  >
<g style=""   >
		<g transform="matrix(0.28 0 0 0.28 5.04 0.16)"  >
<path style="stroke: none; stroke-width: 1; stroke-dasharray: none; stroke-linecap: butt; stroke-dashoffset: 0; stroke-linejoin: miter; stroke-miterlimit: 4; fill: rgb(0,0,0); fill-opacity: 0; fill-rule: nonzero; opacity: 1;" vector-effect="non-scaling-stroke"  transform=" translate(-151.2, -177.94)" d="M 48.173 155.568 C 37.784000000000006 160.455 10.286999999999999 182.454 4.991 188.972 C -0.5090000000000003 195.49 -2.138 185.306 3.5649999999999995 168.4 C 8.045 154.75300000000001 19.453 136.217 38.599 120.33000000000001 C 49.800999999999995 111.16400000000002 74.448 97.92500000000001 89.52 90.18400000000001 C 92.576 88.55400000000002 132.091 71.852 167.329 63.50100000000001 C 170.38500000000002 62.686000000000014 163.663 68.59300000000002 162.644 71.85200000000002 C 157.348 87.33200000000002 51.634 153.73400000000004 51.634 153.73400000000004 z M 197.067 342.348 C 198.9 353.34700000000004 197.27100000000002 354.16200000000003 185.865 355.588 C 174.458 357.014 166.107 352.73600000000005 163.05200000000002 349.88500000000005 C 159.996 347.03200000000004 159.38600000000002 340.71900000000005 162.44100000000003 335.0160000000001 C 164.27500000000003 331.3490000000001 166.10800000000003 330.12700000000007 167.12700000000004 325.6460000000001 C 168.14500000000004 321.3690000000001 168.96000000000004 320.3500000000001 169.77400000000003 318.72100000000006 C 170.58800000000002 317.29400000000004 170.79300000000003 315.86800000000005 170.99600000000004 305.88800000000003 C 171.20000000000005 295.908 170.99600000000004 277.168 172.01500000000004 269.225 C 173.03400000000005 261.07800000000003 208.27200000000005 272.891 208.27200000000005 272.891 C 208.27200000000005 272.891 199.92000000000004 293.66700000000003 197.68000000000004 298.759 C 195.43900000000002 303.85200000000003 195.64300000000003 313.62800000000004 195.64300000000003 315.665 C 195.64300000000003 317.702 194.82900000000004 321.77500000000003 194.21700000000004 321.97900000000004 C 193.60600000000005 322.182 196.25400000000005 327.47800000000007 195.03100000000003 330.53400000000005 C 194.21600000000004 333.386 196.86400000000003 340.71900000000005 197.06700000000004 342.34800000000007 z M 210.511 30.911 C 209.28799999999998 23.171 210.511 7.893000000000001 212.14 5.450000000000003 C 217.23299999999998 -1.4759999999999973 244.11899999999997 -2.2899999999999974 249.82299999999998 5.857000000000003 C 252.26699999999997 9.523000000000003 252.063 18.078000000000003 251.65599999999998 23.578000000000003 C 251.24899999999997 29.077 249.82299999999998 40.891000000000005 249.61899999999997 44.762 C 249.41599999999997 47.614 219.88099999999997 52.094 213.36299999999997 44.354 C 211.52899999999997 42.318 210.51099999999997 30.911 210.51099999999997 30.911 z M 270.395 322.59 C 282.82 331.553 292.393 333.18199999999996 298.707 336.441 C 305.021 339.70099999999996 303.392 346.015 292.8 347.84799999999996 C 284.245 349.477 270.802 346.21799999999996 261.84000000000003 346.21799999999996 C 252.87800000000004 346.21799999999996 232.91600000000003 347.23699999999997 227.62000000000003 343.57099999999997 C 221.51000000000002 339.294 224.15700000000004 331.349 224.15700000000004 331.349 C 225.78700000000003 326.86899999999997 229.86000000000004 316.887 228.63800000000003 308.74 C 227.41600000000003 300.593 225.78600000000003 296.112 222.73100000000002 288.575 C 219.67600000000002 281.039 217.43600000000004 262.50399999999996 220.288 261.485 C 223.14 260.46600000000007 222.324 261.485 225.991 262.29900000000004 C 229.657 263.11300000000006 233.73100000000002 264.336 241.675 264.336 C 249.619 264.336 258.377 263.113 261.433 262.503 C 264.488 261.892 266.932 261.28 265.913 267.59499999999997 C 264.89500000000004 273.909 261.84000000000003 285.72299999999996 261.636 294.88899999999995 C 261.43300000000005 304.05499999999995 261.43300000000005 314.64699999999993 262.04400000000004 316.47999999999996 C 262.65400000000005 318.313 267.136 320.34999999999997 270.39500000000004 322.59 z" stroke-linecap="round" />
</g>
		<g transform="matrix(0.28 0 0 0.28 4.37 -4.98)"  >
<path style="stroke: none; stroke-width: 1; stroke-dasharray: none; stroke-linecap: butt; stroke-dashoffset: 0; stroke-linejoin: miter; stroke-miterlimit: 4; fill: rgb(138,198,64); fill-rule: nonzero; opacity: 1;" vector-effect="non-scaling-stroke"  transform=" translate(-148.83, -159.47)" d="M 226.806 51.28 C 204.401 70.631 161.01500000000001 75.926 96.65100000000001 100.77600000000001 C 80.15200000000002 107.09 36.15600000000001 126.03300000000002 25.564000000000007 145.791 C 61.20900000000001 125.219 74.44900000000001 153.531 77.30000000000001 182.658 C 79.94700000000002 209.952 93.59500000000001 224.21099999999998 128.62900000000002 223.39499999999998 C 164.68200000000002 222.581 175.681 243.55999999999997 185.661 268.207 C 205.011 173.899 235.972 155.56799999999998 255.93200000000002 139.477 C 298.3 105.053 246.156 44.354 226.806 51.28 z" stroke-linecap="round" />
</g>
		<g transform="matrix(0.28 0 0 0.28 -4.28 -16.78)"  >
<path style="stroke: none; stroke-width: 1; stroke-dasharray: none; stroke-linecap: butt; stroke-dashoffset: 0; stroke-linejoin: miter; stroke-miterlimit: 4; fill: rgb(138,198,64); fill-rule: nonzero; opacity: 1;" vector-effect="non-scaling-stroke"  transform=" translate(-117.73, -117.07)" d="M 226.806 51.28 C 173.03300000000002 70.019 119.87 74.70400000000001 57.339 113.201 C 42.47 122.36699999999999 11.101999999999997 143.142 4.991 182.862 C 27.803 157.60399999999998 80.55799999999999 125.83 145.127 105.66499999999999 C 177.717 95.47999999999999 201.549 88.75899999999999 230.472 77.55599999999998 C 228.436 64.51899999999998 228.436 59.42699999999998 226.806 51.27999999999999 z" stroke-linecap="round" />
</g>
		<g transform="matrix(0.28 0 0 0.28 31.8 -19.67)"  >
<path style="stroke: none; stroke-width: 1; stroke-dasharray: none; stroke-linecap: butt; stroke-dashoffset: 0; stroke-linejoin: miter; stroke-miterlimit: 4; fill: rgb(1,1,1); fill-rule: nonzero; opacity: 1;" vector-effect="non-scaling-stroke"  transform=" translate(-247.38, -106.69)" d="M 295.448 162.9 C 295.448 162.9 291.578 176.14000000000001 283.83799999999997 180.418 C 283.83799999999997 180.418 278.135 182.455 266.729 176.14100000000002 C 263.46999999999997 174.30800000000002 261.026 167.99400000000003 261.229 165.95600000000002 C 261.433 161.067 264.488 158.82700000000003 264.488 158.82700000000003 C 264.488 158.82700000000003 267.748 153.32700000000003 271.617 153.53100000000003 C 275.488 153.73400000000004 282.00600000000003 154.34500000000003 284.043 152.51200000000003 C 285.875 150.47500000000002 295.856 156.17800000000003 295.448 162.90000000000003 z M 212.344 34.781000000000006 C 212.344 34.781000000000006 211.53 45.17 210.10399999999998 51.687000000000005 C 209.89999999999998 52.910000000000004 203.79 53.52 199.308 55.354000000000006 C 207.863 79.796 259.396 79.59200000000001 266.118 67.575 C 262.859 65.33500000000001 256.341 61.872 253.286 60.650000000000006 C 250.23 59.42700000000001 250.434 59.63100000000001 250.23 53.928000000000004 C 250.027 48.224000000000004 249.619 37.633 249.21099999999998 34.781000000000006 C 248.80399999999997 31.929000000000006 217.23199999999997 31.929000000000006 212.344 34.781000000000006 z" stroke-linecap="round" />
</g>
		<g transform="matrix(0.28 0 0 0.28 29.28 -33.32)"  >
<path style="stroke: none; stroke-width: 1; stroke-dasharray: none; stroke-linecap: butt; stroke-dashoffset: 0; stroke-linejoin: miter; stroke-miterlimit: 4; fill: rgb(240,239,239); fill-rule: nonzero; opacity: 1;" vector-effect="non-scaling-stroke"  transform=" translate(-238.31, -57.65)" d="M 214.381 34.781 C 214.381 34.781 214.381 40.688 213.77 46.391 C 213.567 49.039 213.363 50.668 212.95600000000002 52.705 C 212.752 53.928 219.88100000000003 58.815 221.918 69.61099999999999 C 231.695 91.40499999999999 254.305 80.60999999999999 263.674 70.222 C 260.41499999999996 67.981 255.11899999999997 64.92599999999999 249.009 62.48199999999999 C 245.95299999999997 61.25899999999999 247.379 58.611999999999995 247.176 52.90899999999999 C 246.97199999999998 47.20599999999999 246.15699999999998 38.85399999999999 245.75 35.79899999999999 C 245.341 32.74399999999999 219.27 31.92899999999999 214.381 34.78099999999999 z" stroke-linecap="round" />
</g>
		<g transform="matrix(0.28 0 0 0.28 27.13 -37.47)"  >
<path style="stroke: none; stroke-width: 1; stroke-dasharray: none; stroke-linecap: butt; stroke-dashoffset: 0; stroke-linejoin: miter; stroke-miterlimit: 4; fill: rgb(1,1,1); fill-rule: nonzero; opacity: 1;" vector-effect="non-scaling-stroke"  transform=" translate(-230.57, -42.72)" d="M 212.344 34.781 C 212.344 34.781 212.14 38.448 211.53 42.725 C 214.177 45.372 217.64000000000001 49.039 220.289 51.28 C 222.12199999999999 52.910000000000004 226.60199999999998 52.706 230.677 52.706 C 234.343 52.706 237.602 53.113 239.028 52.29900000000001 C 242.28799999999998 50.669000000000004 246.97199999999998 46.596000000000004 249.62 43.540000000000006 C 249.417 39.87400000000001 249.213 36.41100000000001 249.01 34.781000000000006 C 248.804 31.929000000000006 217.232 31.929000000000006 212.344 34.781000000000006 z" stroke-linecap="round" />
</g>
		<g transform="matrix(0.28 0 0 0.28 27.21 -41.21)"  >
<path style="stroke: none; stroke-width: 1; stroke-dasharray: none; stroke-linecap: butt; stroke-dashoffset: 0; stroke-linejoin: miter; stroke-miterlimit: 4; fill: rgb(1,1,1); fill-rule: nonzero; opacity: 1;" vector-effect="non-scaling-stroke"  transform=" translate(-230.88, -29.28)" d="M 230.88 50.261 C 228.435 50.261 225.583 50.058 223.343 49.650000000000006 C 222.32399999999998 49.447 221.30599999999998 48.836000000000006 220.49099999999999 48.428000000000004 C 219.065 47.409000000000006 217.63899999999998 46.188 216.011 44.965 C 212.751 42.521 212.548 41.095000000000006 212.548 40.485 C 213.974 27.652 212.14000000000001 16.857 212.14000000000001 16.857 C 212.14000000000001 16.857 210.71400000000003 11.357 218.454 9.931 C 226.194 8.504999999999999 230.87900000000002 8.302 230.87900000000002 8.302 C 230.87900000000002 8.302 235.76800000000003 8.302 243.30400000000003 9.931 C 251.04400000000004 11.357 249.61800000000002 16.857 249.61800000000002 16.857 C 249.61800000000002 16.857 247.78500000000003 27.652 249.211 40.485 C 249.211 41.095 249.008 42.521 245.74800000000002 44.965 C 242.89600000000002 47.002 240.656 49.242000000000004 238.41600000000003 49.650000000000006 C 236.175 50.05800000000001 233.32300000000004 50.261 230.88000000000002 50.261 z" stroke-linecap="round" />
</g>
		<g transform="matrix(0.28 0 0 0.28 33.37 -23.87)"  >
<path style="stroke: none; stroke-width: 1; stroke-dasharray: none; stroke-linecap: butt; stroke-dashoffset: 0; stroke-linejoin: miter; stroke-miterlimit: 4; fill: rgb(1,1,1); fill-rule: nonzero; opacity: 1;" vector-effect="non-scaling-stroke"  transform=" translate(-253.01, -91.61)" d="M 230.88 3.006 C 217.43699999999998 3.006 214.788 6.672 210.918 10.746 C 210.104 11.764000000000001 210.714 17.875 212.14100000000002 30.911 L 213.97400000000002 30.911 C 213.97400000000002 30.911 212.751 27.244 212.955 22.967000000000002 C 213.15900000000002 18.690000000000005 213.97400000000002 18.894000000000002 213.36200000000002 17.875000000000004 C 212.54800000000003 16.652000000000005 210.91800000000003 14.615000000000004 214.58500000000004 12.579000000000004 C 218.25100000000003 10.542000000000005 223.95400000000004 14.208000000000004 230.88000000000005 14.412000000000004 C 237.80500000000006 14.208000000000004 243.71200000000005 10.542000000000005 247.37800000000004 12.579000000000004 C 251.04400000000004 14.615000000000004 249.41500000000005 16.652000000000005 248.60100000000006 17.875000000000004 C 247.78600000000006 19.097000000000005 248.80400000000006 18.689000000000004 249.00800000000007 22.967000000000002 C 249.21100000000007 27.244000000000003 247.98900000000006 30.911 247.98900000000006 30.911 L 249.82200000000006 30.911 C 251.04400000000007 17.875 251.85900000000007 12.172 251.24800000000005 11.153000000000002 C 247.78500000000005 6.672000000000002 244.32300000000004 3.2090000000000023 230.88000000000005 3.006000000000002 z M 295.448 163.511 C 295.448 163.511 291.578 175.936 284.042 180.213 C 282.412 179.399 282.616 178.177 281.19 176.343 C 280.782 175.73299999999998 279.356 175.32399999999998 278.746 174.714 C 278.135 174.103 278.339 173.084 277.32 172.27 C 276.505 171.455 275.894 172.066 275.079 171.455 C 274.265 170.64100000000002 274.06 169.622 273.45 169.012 C 273.042 168.604 271.413 168.401 271.006 167.993 C 269.98699999999997 166.974 261.02599999999995 165.141 261.433 163.10399999999998 C 262.247 160.04799999999997 263.877 157.808 263.877 157.808 C 263.877 157.808 267.747 152.105 271.616 152.308 C 275.486 152.512 279.15299999999996 153.327 281.19 151.494 C 283.431 149.456 296.06 156.993 295.448 163.511 z" stroke-linecap="round" />
</g>
		<g transform="matrix(0.28 0 0 0.28 42.71 -16.43)"  >
<path style="stroke: none; stroke-width: 1; stroke-dasharray: none; stroke-linecap: butt; stroke-dashoffset: 0; stroke-linejoin: miter; stroke-miterlimit: 4; fill: rgb(1,1,1); fill-rule: nonzero; opacity: 1;" vector-effect="non-scaling-stroke"  transform=" translate(-286.58, -118.33)" d="M 268.969 73.482 C 268.969 73.482 281.801 70.426 290.56 78.778 C 299.319 87.333 298.707 97.924 296.06 104.44200000000001 C 298.3 107.09 302.374 114.42200000000001 299.319 123.18100000000001 C 312.762 134.58700000000002 306.855 152.10500000000002 294.838 163.715 C 294.838 163.715 291.98600000000005 153.123 280.58000000000004 152.512 C 280.987 148.439 269.98800000000006 145.179 275.08000000000004 134.587 C 267.34000000000003 132.754 267.54400000000004 127.45799999999998 266.32200000000006 120.94099999999999 C 265.30300000000005 114.42199999999998 268.96900000000005 73.48199999999999 268.96900000000005 73.48199999999999 z" stroke-linecap="round" />
</g>
		<g transform="matrix(0.28 0 0 0.28 41.81 -14.09)"  >
<path style="stroke: none; stroke-width: 1; stroke-dasharray: none; stroke-linecap: butt; stroke-dashoffset: 0; stroke-linejoin: miter; stroke-miterlimit: 4; fill: rgb(240,239,239); fill-rule: nonzero; opacity: 1;" vector-effect="non-scaling-stroke"  transform=" translate(-283.32, -126.72)" d="M 264.284 79.185 C 264.284 79.185 279.153 71.649 287.912 80.20400000000001 C 296.66999999999996 88.75900000000001 294.22499999999997 98.12800000000001 291.578 104.64600000000002 C 293.818 107.29300000000002 299.114 114.83100000000002 295.85499999999996 123.79200000000002 C 295.24399999999997 125.82900000000002 290.763 125.82900000000002 287.503 131.12500000000003 C 295.65 126.43900000000002 300.743 127.66200000000003 302.57599999999996 133.56800000000004 C 305.42799999999994 142.73400000000004 299.11299999999994 153.73300000000003 293.614 159.84400000000005 C 293.614 159.64000000000004 293.40999999999997 159.43600000000006 293.40999999999997 159.23300000000006 C 292.59599999999995 162.28900000000007 291.57699999999994 168.19500000000005 285.467 174.71300000000005 C 282.411 177.97200000000004 279.967 177.56500000000005 276.50399999999996 176.75000000000006 C 272.431 175.73100000000005 271.00499999999994 173.89700000000005 265.30199999999996 170.84300000000005 C 262.04299999999995 169.01000000000005 263.876 166.76900000000003 263.876 164.93600000000004 C 263.876 164.52900000000002 264.28299999999996 163.91700000000003 264.895 163.10300000000004 C 265.30199999999996 162.08400000000003 266.524 160.45600000000005 268.35699999999997 158.62200000000004 C 268.35699999999997 158.62200000000004 271.005 154.95600000000005 274.876 155.15900000000005 C 278.746 155.36300000000006 282.81899999999996 154.54900000000004 283.83799999999997 153.53000000000006 C 283.83799999999997 146.40100000000007 275.691 146.19700000000006 278.542 133.97600000000006 C 278.746 133.36500000000007 279.765 132.34600000000006 283.02299999999997 131.93900000000005 C 278.13399999999996 130.92000000000004 275.89399999999995 130.71600000000004 272.431 127.45800000000006 C 269.98699999999997 125.21800000000006 268.154 122.36600000000006 267.542 118.70000000000006 C 266.32099999999997 112.38600000000005 264.284 79.18500000000006 264.284 79.18500000000006 z" stroke-linecap="round" />
</g>
		<g transform="matrix(0.28 0 0 0.28 16.06 -31.85)"  >
<path style="stroke: none; stroke-width: 1; stroke-dasharray: none; stroke-linecap: butt; stroke-dashoffset: 0; stroke-linejoin: miter; stroke-miterlimit: 4; fill: rgb(1,1,1); fill-rule: nonzero; opacity: 1;" vector-effect="non-scaling-stroke"  transform=" translate(-190.81, -62.93)" d="M 221.306 66.353 C 220.084 64.723 213.77 56.57599999999999 201.752 53.31699999999999 C 198.28900000000002 52.297999999999995 196.049 55.14999999999999 192.58700000000002 57.18699999999999 C 191.568 56.57599999999999 187.08700000000002 54.53899999999999 184.64300000000003 55.96399999999999 C 182.19900000000004 57.388999999999996 180.57000000000002 58.81599999999999 178.12500000000003 59.83399999999999 C 176.90200000000002 59.22299999999999 173.64400000000003 59.22299999999999 170.99600000000004 60.240999999999985 C 168.34800000000004 61.05599999999998 164.27400000000003 62.88899999999999 160.40400000000002 68.18499999999999 C 157.96000000000004 76.94399999999999 203.58500000000004 70.42499999999998 203.58500000000004 70.42499999999998 z" stroke-linecap="round" />
</g>
		<g transform="matrix(0.28 0 0 0.28 16.43 -31.21)"  >
<path style="stroke: none; stroke-width: 1; stroke-dasharray: none; stroke-linecap: butt; stroke-dashoffset: 0; stroke-linejoin: miter; stroke-miterlimit: 4; fill: rgb(138,198,64); fill-rule: nonzero; opacity: 1;" vector-effect="non-scaling-stroke"  transform=" translate(-192.13, -65.22)" d="M 221.714 66.353 C 215.195 64.112 216.214 56.57599999999999 201.752 55.35399999999999 C 198.9 55.14999999999999 197.067 57.38999999999999 195.03 58.815999999999995 C 196.049 59.834999999999994 197.067 61.464 197.678 63.092999999999996 C 195.845 61.056999999999995 192.58599999999998 58.407999999999994 189.326 57.797 C 186.271 57.187 184.23399999999998 59.427 180.975 61.056999999999995 C 181.585 61.666999999999994 182.197 62.68599999999999 183.011 63.90899999999999 C 180.159 62.07599999999999 178.123 61.46499999999999 174.253 62.88999999999999 C 171.605 63.70399999999999 166.51299999999998 65.945 162.64299999999997 71.445 C 160.19899999999998 80.204 203.78799999999998 70.42599999999999 203.78799999999998 70.42599999999999 z" stroke-linecap="round" />
</g>
		<g transform="matrix(0.28 0 0 0.28 38.27 -30.27)"  >
<path style="stroke: none; stroke-width: 1; stroke-dasharray: none; stroke-linecap: butt; stroke-dashoffset: 0; stroke-linejoin: miter; stroke-miterlimit: 4; fill: rgb(1,1,1); fill-rule: nonzero; opacity: 1;" vector-effect="non-scaling-stroke"  transform=" translate(-270.6, -68.59)" d="M 260.007 69.612 C 260.007 69.612 260.007 67.371 259.803 65.335 C 259.803 64.928 258.174 63.90899999999999 258.174 63.501999999999995 L 257.767 63.093999999999994 C 257.767 63.093999999999994 261.026 61.260999999999996 263.46999999999997 62.279999999999994 C 266.11699999999996 63.093999999999994 267.54299999999995 66.55699999999999 267.54299999999995 66.55699999999999 C 272.22799999999995 64.92799999999998 272.63499999999993 66.76099999999998 274.876 69.20499999999998 C 279.765 68.18599999999998 280.375 70.01899999999998 283.431 74.50099999999999 C 283.431 74.50099999999999 279.765 73.88999999999999 272.63599999999997 75.11099999999999 C 265.71 76.12899999999999 260.00699999999995 69.40799999999999 260.00699999999995 69.612 z" stroke-linecap="round" />
</g>
		<g transform="matrix(0.28 0 0 0.28 38.09 -29.82)"  >
<path style="stroke: none; stroke-width: 1; stroke-dasharray: none; stroke-linecap: butt; stroke-dashoffset: 0; stroke-linejoin: miter; stroke-miterlimit: 4; fill: rgb(138,198,64); fill-rule: nonzero; opacity: 1;" vector-effect="non-scaling-stroke"  transform=" translate(-269.98, -70.23)" d="M 259.192 68.593 C 259.192 68.593 260.414 67.574 260.00600000000003 67.37 C 262.24600000000004 66.14800000000001 265.302 64.723 266.728 68.593 C 271.413 66.96300000000001 272.024 69.20400000000001 274.264 71.649 C 279.967 69.001 280.374 72.259 280.782 73.685 C 278.94899999999996 73.685 276.30199999999996 73.889 272.635 74.296 C 265.71 75.31500000000001 258.988 68.38900000000001 259.192 68.593 z" stroke-linecap="round" />
</g>
		<g transform="matrix(0.28 0 0 0.28 27.1 3.83)"  >
<path style="stroke: none; stroke-width: 1; stroke-dasharray: none; stroke-linecap: butt; stroke-dashoffset: 0; stroke-linejoin: miter; stroke-miterlimit: 4; fill: rgb(1,1,1); fill-rule: nonzero; opacity: 1;" vector-effect="non-scaling-stroke"  transform=" translate(-230.49, -191.11)" d="M 189.939 63.501 C 189.939 63.501 201.54899999999998 67.574 211.326 66.963 C 221.10299999999998 66.149 237.805 65.33399999999999 246.767 70.63 C 246.767 70.63 255.933 67.36999999999999 264.488 69.61099999999999 C 273.044 71.85099999999998 288.727 86.517 284.043 101.99699999999999 C 283.635 103.01599999999999 280.987 104.64499999999998 277.932 105.66399999999999 C 277.932 105.66399999999999 279.562 112.58899999999998 276.71000000000004 118.29199999999999 C 273.85800000000006 123.79199999999999 267.54400000000004 134.384 267.34000000000003 149.04899999999998 C 267.13700000000006 151.49299999999997 266.73 156.58499999999998 266.32200000000006 159.02899999999997 C 250.43400000000005 158.41899999999995 225.99200000000008 152.51099999999997 201.95700000000005 152.91899999999995 C 202.16000000000005 150.27199999999996 202.36400000000006 148.64199999999997 202.56800000000004 145.99399999999994 L 203.17800000000005 145.99399999999994 C 201.95600000000005 139.27199999999993 201.54900000000006 135.80899999999994 200.32600000000005 130.71699999999996 C 192.58600000000004 125.82899999999995 184.43800000000005 120.12599999999996 177.51400000000004 109.32999999999996 C 170.79200000000003 98.53399999999996 189.93900000000005 63.500999999999955 189.93900000000005 63.500999999999955 z M 268.562 173.492 C 268.562 173.492 281.19100000000003 218.71099999999998 266.322 237.654 C 266.322 237.654 268.562 246.412 263.47 255.78199999999998 C 262.65500000000003 259.85499999999996 261.636 263.522 261.026 267.59499999999997 C 258.378 284.501 253.89600000000002 291.63 252.674 318.71999999999997 L 240.452 318.517 C 240.452 318.517 239.026 298.963 234.749 288.575 C 232.30599999999998 282.669 222.731 274.724 223.14 266.781 C 223.547 260.67 224.76899999999998 255.578 235.158 247.43 C 235.97199999999998 235.61700000000002 224.158 224.413 225.992 180.417 z" stroke-linecap="round" />
</g>
		<g transform="matrix(0.28 0 0 0.28 27.05 3.85)"  >
<path style="stroke: none; stroke-width: 1; stroke-dasharray: none; stroke-linecap: butt; stroke-dashoffset: 0; stroke-linejoin: miter; stroke-miterlimit: 4; fill: rgb(240,239,239); fill-rule: nonzero; opacity: 1;" vector-effect="non-scaling-stroke"  transform=" translate(-230.3, -191.21)" d="M 264.896 171.658 C 268.15500000000003 192.434 275.69100000000003 223.19099999999997 262.04400000000004 238.26299999999998 C 262.8493030829458 242.08488396248617 262.9182009596485 246.02529947242795 262.247 249.873 C 261.84000000000003 252.31699999999998 261.02500000000003 254.965 260.007 257.816 C 257.97 262.705 257.15500000000003 269.83399999999995 256.544 274.111 C 253.896 291.017 253.896 291.83299999999997 252.67399999999998 318.923 L 240.45199999999997 318.719 C 240.45199999999997 318.719 239.02599999999998 299.165 234.74899999999997 288.778 C 232.30599999999995 282.87100000000004 227.21299999999997 277.779 226.80599999999995 269.83500000000004 C 226.39899999999994 263.725 230.67599999999996 251.50400000000005 240.86099999999996 251.91100000000003 C 240.24999999999997 227.26500000000004 228.84299999999996 232.15300000000002 225.78799999999995 180.824 z M 189.93900000000002 63.50099999999999 C 189.93900000000002 63.50099999999999 194.42000000000002 64.92699999999999 199.30800000000002 65.33399999999999 C 204.19700000000003 65.74099999999999 209.49300000000002 65.33399999999999 214.17700000000002 65.13 C 223.954 64.316 237.805 63.297 246.971 68.59299999999999 C 246.971 68.59299999999999 252.06300000000002 66.963 257.563 67.36999999999999 C 260.007 67.57399999999998 262.452 69.61099999999999 265.303 70.42599999999999 C 274.265 72.66599999999998 282.82 87.535 278.949 100.97899999999998 C 278.54200000000003 101.99799999999999 275.69 100.97899999999998 272.43100000000004 101.99799999999999 C 273.04100000000005 104.85 273.45000000000005 111.368 270.19000000000005 118.29299999999999 C 266.72800000000007 125.219 262.24700000000007 134.18099999999998 263.06100000000004 151.291 C 241.67400000000004 150.272 232.10100000000003 148.847 210.91700000000003 147.828 C 209.08400000000003 140.291 207.86100000000002 132.755 207.65800000000004 128.885 C 210.51000000000005 127.45899999999999 212.13800000000003 126.23799999999999 214.38000000000005 123.79299999999999 C 208.27000000000004 124.812 205.82500000000005 124.404 202.15800000000004 122.36699999999999 C 198.49200000000005 120.32999999999998 191.97400000000005 113.81199999999998 188.71500000000003 109.535 C 188.30800000000002 109.127 186.06800000000004 115.848 180.97600000000003 116.053 C 179.14200000000002 113.405 186.88200000000003 105.868 185.45600000000002 103.017 C 180.365 92.628 189.93900000000002 63.501 189.93900000000002 63.501 z" stroke-linecap="round" />
</g>
		<g transform="matrix(0.28 0 0 0.28 27.95 -1.88)"  >
<path style="stroke: none; stroke-width: 1; stroke-dasharray: none; stroke-linecap: butt; stroke-dashoffset: 0; stroke-linejoin: miter; stroke-miterlimit: 4; fill: rgb(1,1,1); fill-rule: nonzero; opacity: 1;" vector-effect="non-scaling-stroke"  transform=" translate(-233.53, -170.6)" d="M 266.524 154.752 C 266.524 154.752 266.931 162.085 266.931 163.918 C 266.931 165.955 268.561 172.065 268.764 174.917 C 266.524 178.787 256.747 187.546 239.026 190.805 C 221.50900000000001 194.471 198.28900000000002 166.97400000000002 198.28900000000002 166.97400000000002 C 198.9 164.32600000000002 200.937 156.585 202.36300000000003 152.51200000000003 C 202.56700000000004 152.10500000000002 202.97400000000002 151.08600000000004 202.97400000000002 150.67900000000003 C 204.80800000000002 148.03100000000003 266.524 154.75200000000004 266.524 154.75200000000004 z" stroke-linecap="round" />
</g>
		<g transform="matrix(0.28 0 0 0.28 28.54 -2.39)"  >
<path style="stroke: none; stroke-width: 1; stroke-dasharray: none; stroke-linecap: butt; stroke-dashoffset: 0; stroke-linejoin: miter; stroke-miterlimit: 4; fill: rgb(240,239,239); fill-rule: nonzero; opacity: 1;" vector-effect="non-scaling-stroke"  transform=" translate(-235.67, -168.77)" d="M 262.044 155.364 C 262.044 160.45600000000002 262.858 164.123 263.46999999999997 167.382 C 264.48799999999994 173.28900000000002 266.11699999999996 177.159 266.11699999999996 181.029 C 266.11699999999996 192.84199999999998 250.63699999999997 190.805 237.59999999999997 191.213 C 220.08299999999997 194.88 205.21399999999997 167.382 205.21399999999997 167.382 C 206.43599999999998 162.697 207.25099999999998 157.40200000000002 209.08399999999997 152.92000000000002 C 209.28699999999998 150.47600000000003 209.69499999999996 147.42100000000002 209.89799999999997 145.995 C 234.74799999999996 145.995 252.26499999999996 147.421 262.45 148.43800000000002 C 262.858 150.67900000000003 262.45099999999996 154.549 262.044 155.364 z" stroke-linecap="round" />
</g>
		<g transform="matrix(0.28 0 0 0.28 20.83 13.85)"  >
<path style="stroke: none; stroke-width: 1; stroke-dasharray: none; stroke-linecap: butt; stroke-dashoffset: 0; stroke-linejoin: miter; stroke-miterlimit: 4; fill: rgb(1,1,1); fill-rule: nonzero; opacity: 1;" vector-effect="non-scaling-stroke"  transform=" translate(-207.96, -227.11)" d="M 242.489 181.639 C 242.489 181.639 231.69400000000002 157.604 199.30700000000002 164.734 C 191.568 186.52800000000002 181.17900000000003 211.582 187.901 238.67200000000003 C 181.179 247.83800000000002 173.43900000000002 252.93100000000004 173.43900000000002 269.836 C 173.43900000000002 286.742 174.25400000000002 289.594 174.25400000000002 289.594 L 198.085 290.817 C 198.085 290.817 205.82500000000002 280.837 208.88 270.041 C 209.695 266.985 210.51 261.486 209.899 255.172 C 210.713 253.95 214.176 251.099 214.584 245.599 C 214.584 245.599 226.19400000000002 239.48899999999998 232.916 224.62 C 239.231 211.174 237.601 199.564 242.489 181.639 z" stroke-linecap="round" />
</g>
		<g transform="matrix(0.28 0 0 0.28 21.66 13.47)"  >
<path style="stroke: none; stroke-width: 1; stroke-dasharray: none; stroke-linecap: butt; stroke-dashoffset: 0; stroke-linejoin: miter; stroke-miterlimit: 4; fill: rgb(240,239,239); fill-rule: nonzero; opacity: 1;" vector-effect="non-scaling-stroke"  transform=" translate(-210.94, -225.75)" d="M 242.489 181.639 C 241.879 179.399 233.731 157.401 203.585 163.918 C 185.865 211.174 192.383 230.728 195.03 239.282 C 183.012 254.55800000000002 177.513 257.817 179.958 288.778 L 195.846 288.778 C 203.178 277.168 204.808 272.89000000000004 205.215 257.61400000000003 C 205.215 257.00300000000004 202.975 258.836 201.345 260.87300000000005 C 202.568 254.55900000000005 206.03 253.33700000000005 208.678 249.46700000000004 C 209.9 247.83700000000005 210.918 245.39300000000003 210.918 242.13400000000004 C 225.17600000000002 232.56100000000004 230.472 220.54300000000003 233.52700000000002 208.11800000000005 C 235.972 199.56400000000005 238.823 185.50900000000004 242.489 181.63900000000007 z" stroke-linecap="round" />
</g>
		<g transform="matrix(0.28 0 0 0.28 27.01 20.64)"  >
<path style="stroke: none; stroke-width: 1; stroke-dasharray: none; stroke-linecap: butt; stroke-dashoffset: 0; stroke-linejoin: miter; stroke-miterlimit: 4; fill: rgb(1,1,1); fill-rule: nonzero; opacity: 1;" vector-effect="non-scaling-stroke"  transform=" translate(-230.17, -251.51)" d="M 192.179 148.846 C 192.179 148.846 197.679 149.049 202.568 150.679 C 207.25300000000001 152.308 207.25300000000001 153.326 209.086 155.364 C 210.919 157.40200000000002 215.4 160.45600000000002 214.586 163.511 C 214.17800000000003 165.141 213.16000000000003 165.548 211.734 166.974 C 211.12300000000002 167.58499999999998 206.64100000000002 172.47299999999998 205.62300000000002 173.084 C 205.01200000000003 173.491 204.19700000000003 174.103 203.586 174.51 L 200.531 176.547 C 198.494 177.566 197.068 178.177 194.828 177.97299999999998 C 194.828 177.97299999999998 189.736 177.76899999999998 186.476 174.307 C 186.476 174.307 186.069 172.677 186.884 171.863 C 186.884 171.863 182.606 168.196 181.384 165.752 C 180.16099999999997 163.309 180.16099999999997 159.846 180.97699999999998 158.013 C 181.384 156.178 189.32699999999997 151.086 192.17899999999997 148.846 z M 197.272 347.033 L 196.661 352.12600000000003 C 196.661 352.12600000000003 194.828 354.36600000000004 181.181 354.163 C 167.33 353.959 163.66400000000002 349.682 162.442 347.44100000000003 L 161.62800000000001 342.14500000000004 C 161.62800000000001 342.14500000000004 164.276 338.27500000000003 164.887 338.27500000000003 C 169.368 338.682 184.645 344.793 195.237 346.422 C 196.253 346.422 196.456 346.829 197.272 347.033 z M 226.80599999999998 336.64500000000004 C 226.80599999999998 338.88500000000005 226.60199999999998 338.88500000000005 226.60199999999998 341.12600000000003 C 229.04599999999996 342.95900000000006 235.158 343.978 246.76699999999997 343.773 C 263.67299999999994 343.36600000000004 279.35699999999997 348.86600000000004 298.503 345.60600000000005 L 298.707 341.94000000000005 L 296.87399999999997 341.7370000000001 L 229.04599999999996 336.2370000000001 z" stroke-linecap="round" />
</g>
		<g transform="matrix(0.28 0 0 0.28 21.74 8.02)"  >
<path style="stroke: none; stroke-width: 1; stroke-dasharray: none; stroke-linecap: butt; stroke-dashoffset: 0; stroke-linejoin: miter; stroke-miterlimit: 4; fill: rgb(1,1,1); fill-rule: nonzero; opacity: 1;" vector-effect="non-scaling-stroke"  transform=" translate(-211.23, -206.18)" d="M 241.675 343.774 L 246.76700000000002 343.774 C 257.76700000000005 343.367 268.15500000000003 345.811 279.357 346.422 C 285.264 346.218 292.59700000000004 344.79200000000003 291.98600000000005 340.51500000000004 L 234.13900000000004 335.62600000000003 C 230.67600000000004 339.49600000000004 233.32300000000004 342.75500000000005 241.67500000000004 343.77400000000006 z M 175.27300000000002 258.022 C 177.10600000000002 259.24399999999997 189.53100000000003 266.577 209.69600000000003 265.558 C 209.28800000000004 269.428 209.49200000000002 276.965 200.53000000000003 290.204 C 196.04900000000004 296.722 192.17800000000003 308.129 191.36400000000003 322.591 C 191.56800000000004 325.85 193.40100000000004 328.701 190.95700000000002 332.979 C 191.77100000000002 335.626 195.03000000000003 340.92199999999997 196.66000000000003 344.181 C 198.28900000000002 347.441 199.104 351.10699999999997 188.30800000000002 351.311 C 177.30900000000003 351.51399999999995 159.58800000000002 350.292 162.03300000000002 341.738 C 163.25600000000003 337.257 166.71800000000002 332.572 167.126 330.738 C 167.53300000000002 328.905 167.53300000000002 323.406 170.995 319.739 C 174.05100000000002 309.55499999999995 173.032 299.77799999999996 172.422 290.61199999999997 C 171.403 281.03799999999995 171.19899999999998 265.76199999999994 175.273 258.02199999999993 z M 194.21600000000004 92.017 C 208.67800000000003 72.666 196.45600000000005 57.187 173.23700000000002 61.870999999999995 C 163.86700000000002 63.70399999999999 154.49800000000002 70.223 153.88600000000002 82.036 C 150.83100000000002 82.443 143.90600000000003 82.85 140.443 95.479 C 137.79600000000002 105.256 136.37 107.089 131.68400000000003 111.977 C 128.62900000000002 115.44 131.88800000000003 122.569 134.12800000000001 127.662 C 141.66500000000002 145.179 164.88500000000002 146.808 180.56900000000002 160.048 C 185.865 158.622 191.364 152.716 192.99400000000003 148.846 C 179.75400000000002 133.161 182.60500000000002 127.051 177.30900000000003 118.904 C 183.01300000000003 116.866 196.04900000000004 108.923 194.21600000000004 92.017 z" stroke-linecap="round" />
</g>
		<g transform="matrix(0.28 0 0 0.28 10.24 -18.44)"  >
<path style="stroke: none; stroke-width: 1; stroke-dasharray: none; stroke-linecap: butt; stroke-dashoffset: 0; stroke-linejoin: miter; stroke-miterlimit: 4; fill: rgb(240,239,239); fill-rule: nonzero; opacity: 1;" vector-effect="non-scaling-stroke"  transform=" translate(-169.9, -111.12)" d="M 191.364 90.795 C 192.178 89.572 193.604 86.925 194.216 85.906 C 194.42000000000002 85.70200000000001 196.66 89.572 196.864 89.369 C 202.363 80.406 203.78900000000002 67.37 197.47400000000002 66.148 C 196.04800000000003 65.944 193.401 65.334 191.16000000000003 64.518 C 187.08700000000002 63.092 183.42100000000002 63.092 176.90200000000002 64.315 C 167.94000000000003 65.944 158.978 72.462 158.978 81.832 C 158.978 82.443 165.291 84.276 167.125 91.81299999999999 C 164.069 87.53499999999998 158.773 82.85 152.459 86.92399999999999 C 145.737 91.201 149.20000000000002 100.978 140.238 111.16199999999999 C 137.182 114.62499999999999 137.59 118.699 140.848 126.84599999999999 C 146.144 139.679 171.198 146.60399999999998 184.84500000000003 158.825 C 188.104 157.399 190.34400000000002 154.14 191.97400000000002 151.696 C 182.80800000000002 142.123 179.14100000000002 133.16 176.49400000000003 126.642 C 173.23500000000004 119.106 169.56800000000004 114.829 162.43900000000002 109.124 C 166.10600000000002 110.55 168.95800000000003 111.976 170.586 113.198 C 172.419 114.41999999999999 175.067 114.624 177.512 113.809 C 186.272 110.756 190.957 98.53399999999999 191.364 90.795 z" stroke-linecap="round" />
</g>
		<g transform="matrix(0.28 0 0 0.28 29.23 -22.84)"  >
<path style="stroke: none; stroke-width: 1; stroke-dasharray: none; stroke-linecap: butt; stroke-dashoffset: 0; stroke-linejoin: miter; stroke-miterlimit: 4; fill: rgb(1,1,1); fill-rule: nonzero; opacity: 1;" vector-effect="non-scaling-stroke"  transform=" translate(-238.14, -95.31)" d="M 279.968 94.054 C 279.357 101.794 273.654 97.924 270.59900000000005 96.498 C 264.48800000000006 93.85000000000001 258.37700000000007 92.01700000000001 251.24800000000005 92.01700000000001 C 244.11900000000003 92.01700000000001 234.95300000000003 92.62800000000001 227.01000000000005 94.665 C 216.01100000000005 97.72000000000001 212.75100000000003 97.51700000000001 207.86300000000006 95.072 C 202.97500000000005 92.424 194.42100000000005 85.906 194.42100000000005 85.906 C 194.42100000000005 85.906 194.21700000000004 87.94300000000001 196.25400000000005 90.59100000000001 C 198.90100000000004 93.85000000000001 204.80900000000005 97.924 212.75200000000004 100.57100000000001 C 216.62200000000004 101.79400000000001 219.67800000000003 100.97800000000001 223.14100000000005 100.16400000000002 C 241.26900000000006 95.68300000000002 260.4150000000001 94.86800000000001 276.50600000000003 104.64500000000001 C 277.321 105.052 280.173 103.83000000000001 281.39500000000004 101.99700000000001 C 283.023 99.35000000000001 279.968 94.05400000000002 279.968 94.05400000000002 z" stroke-linecap="round" />
</g>
		<g transform="matrix(0.28 0 0 0.28 15.9 -1.11)"  >
<path style="stroke: none; stroke-width: 1; stroke-dasharray: none; stroke-linecap: butt; stroke-dashoffset: 0; stroke-linejoin: miter; stroke-miterlimit: 4; fill: rgb(10,24,37); fill-rule: nonzero; opacity: 1;" vector-effect="non-scaling-stroke"  transform=" translate(-190.24, -173.39)" d="M 187.291 171.658 C 188.92 172.677 190.957 173.28799999999998 193.197 175.12099999999998 C 193.197 175.12099999999998 191.364 175.12099999999998 190.55 174.307 C 189.531 173.696 187.494 171.863 187.29100000000003 171.658 z" stroke-linecap="round" />
</g>
		<g transform="matrix(0.28 0 0 0.28 27.24 -41.6)"  >
<path style="stroke: none; stroke-width: 1; stroke-dasharray: none; stroke-linecap: butt; stroke-dashoffset: 0; stroke-linejoin: miter; stroke-miterlimit: 4; fill: rgb(240,239,239); fill-rule: nonzero; opacity: 1;" vector-effect="non-scaling-stroke"  transform=" translate(-230.98, -27.89)" d="M 246.156 10.135 C 245.54500000000002 8.302 241.06300000000002 5.042 230.67600000000002 5.042 C 219.473 5.042 216.21400000000003 8.504999999999999 216.01100000000002 10.338000000000001 C 216.01100000000002 10.949000000000002 215.19600000000003 17.468 214.99200000000002 20.115000000000002 C 214.99200000000002 20.115000000000002 214.99200000000002 23.374000000000002 215.19500000000002 28.262 C 215.39900000000003 31.521 216.21400000000003 33.354 216.621 37.632 C 217.02800000000002 42.111999999999995 218.251 44.964 220.491 48.631 C 221.51000000000002 49.241 222.324 49.853 223.34300000000002 50.057 C 227.41700000000003 50.871 234.54600000000002 51.075 238.41600000000003 50.057 C 240.65600000000003 49.446000000000005 243.50800000000004 45.576 244.11900000000003 42.113 C 244.93300000000002 37.836 245.74800000000002 34.78 245.95200000000003 32.132999999999996 C 246.35900000000004 29.485999999999997 246.56300000000002 23.577999999999996 246.76600000000002 21.947999999999993 C 247.37800000000001 17.467999999999993 246.359 10.541999999999993 246.156 10.134999999999993 z" stroke-linecap="round" />
</g>
		<g transform="matrix(0.28 0 0 0.28 35.53 34.82)"  >
<path style="stroke: none; stroke-width: 1; stroke-dasharray: none; stroke-linecap: butt; stroke-dashoffset: 0; stroke-linejoin: miter; stroke-miterlimit: 4; fill: rgb(1,1,1); fill-rule: nonzero; opacity: 1;" vector-effect="non-scaling-stroke"  transform=" translate(-260.76, -302.47)" d="M 224.769 261.892 C 224.769 261.892 235.565 266.577 262.248 262.503 C 262.248 262.503 254.712 300.389 258.175 319.331 C 258.175 319.331 261.637 324.22 287.302 333.589 C 287.302 333.589 298.708 336.441 298.30100000000004 342.145 C 298.30100000000004 342.145 298.708 343.36699999999996 284.85800000000006 342.959 C 271.0080000000001 342.55100000000004 257.97100000000006 340.107 248.80500000000006 340.107 C 239.63900000000007 340.107 229.86200000000005 340.514 228.23300000000006 337.867 C 226.40000000000006 335.423 228.64000000000007 329.108 231.28800000000007 325.44100000000003 C 234.14100000000008 321.572 233.32500000000007 318.71900000000005 233.12200000000007 311.795 C 232.50900000000007 293.66700000000003 218.65800000000007 274.928 224.76900000000006 261.892 z" stroke-linecap="round" />
</g>
		<g transform="matrix(0.28 0 0 0.28 35.35 35.63)"  >
<path style="stroke: none; stroke-width: 1; stroke-dasharray: none; stroke-linecap: butt; stroke-dashoffset: 0; stroke-linejoin: miter; stroke-miterlimit: 4; fill: rgb(138,198,64); fill-rule: nonzero; opacity: 1;" vector-effect="non-scaling-stroke"  transform=" translate(-260.13, -305.37)" d="M 222.528 265.355 C 221.102 267.392 222.731 275.13100000000003 224.768 282.668 C 226.805 290.204 231.287 294.68600000000004 232.305 307.11 C 233.323 319.331 233.52700000000002 320.961 230.064 328.089 C 226.60099999999997 335.217 225.583 341.736 237.6 341.94 C 249.617 342.144 256.13599999999997 341.736 268.35699999999997 343.57 C 280.57899999999995 345.403 284.856 346.014 291.578 344.996 C 298.29999999999995 343.97799999999995 299.72499999999997 341.736 296.87399999999997 339.7 C 294.022 337.663 282.20799999999997 335.423 277.116 331.348 C 272.227 327.682 258.377 321.571 258.174 319.942 C 257.563 314.442 257.359 294.481 258.37699999999995 287.963 C 259.39599999999996 281.444 260.82099999999997 272.07500000000005 261.2289999999999 269.63100000000003 C 261.6369999999999 267.187 263.67299999999994 264.742 260.2099999999999 265.557 C 256.74799999999993 266.37100000000004 243.71199999999993 268.20500000000004 233.93499999999992 267.594 C 224.15799999999993 266.984 223.13999999999993 264.743 222.5279999999999 265.355 z" stroke-linecap="round" />
</g>
		<g transform="matrix(0.28 0 0 0.28 35.77 36.8)"  >
<path style="stroke: none; stroke-width: 1; stroke-dasharray: none; stroke-linecap: butt; stroke-dashoffset: 0; stroke-linejoin: miter; stroke-miterlimit: 4; fill: rgb(1,1,1); fill-rule: nonzero; opacity: 0.3;" vector-effect="non-scaling-stroke"  transform=" translate(-261.64, -309.59)" d="M 229.454 328.294 C 232.916 329.923 238.00900000000001 331.14599999999996 241.87900000000002 331.14599999999996 C 241.87900000000002 331.14599999999996 240.45200000000003 337.86799999999994 242.693 341.941 C 244.93300000000002 346.015 226.39800000000002 343.57099999999997 226.39800000000002 343.57099999999997 L 225.58400000000003 329.109 z M 283.431 345.811 C 286.69 344.792 288.931 341.126 286.28299999999996 337.664 C 283.431 334.20099999999996 280.98699999999997 333.59 284.65299999999996 333.387 C 288.31999999999994 333.183 301.763 341.33 301.763 341.33 L 294.837 347.644 z M 221.91699999999997 273.298 C 226.60199999999998 274.928 233.73099999999997 275.335 239.84199999999998 275.13100000000003 C 245.952 274.92800000000005 255.118 274.112 261.026 272.076 C 266.932 270.03900000000004 264.488 274.31600000000003 264.488 274.31600000000003 L 261.229 277.372 C 261.229 277.372 253.48899999999998 280.427 240.861 280.224 C 225.992 280.02 221.51 278.39099999999996 221.51 278.39099999999996 z M 222.32399999999998 283.483 C 227.01 285.113 234.13799999999998 285.52 240.249 285.31600000000003 C 246.359 285.11300000000006 254.507 285.11300000000006 260.414 282.872 C 262.858 282.058 261.433 285.52000000000004 261.433 285.52000000000004 L 260.414 287.35300000000007 C 260.414 287.35300000000007 252.47 290.20500000000004 240.045 290.00000000000006 C 225.176 289.7970000000001 222.528 288.57400000000007 222.528 288.57400000000007 z" stroke-linecap="round" />
</g>
		<g transform="matrix(0.28 0 0 0.28 35.53 34.79)"  >
<path style="stroke: none; stroke-width: 1; stroke-dasharray: none; stroke-linecap: butt; stroke-dashoffset: 0; stroke-linejoin: miter; stroke-miterlimit: 4; fill: none; fill-rule: nonzero; opacity: 1;" vector-effect="non-scaling-stroke"  transform=" translate(-260.76, -302.37)" d="M 224.769 261.892 C 224.769 261.892 242.49 268.206 262.452 263.929 C 262.452 263.929 254.712 300.38899999999995 258.175 319.128 C 258.175 319.128 261.637 324.01599999999996 287.302 333.38599999999997 C 287.302 333.38599999999997 298.708 336.23799999999994 298.30100000000004 341.941 C 298.30100000000004 341.941 298.708 343.164 284.85800000000006 342.755 C 271.00700000000006 342.348 257.97100000000006 339.903 248.80500000000006 339.903 C 239.63900000000007 339.903 229.86200000000005 340.31100000000004 228.23300000000006 337.663 C 226.40000000000006 335.219 228.64000000000007 328.904 231.28800000000007 325.238 C 234.14100000000008 321.368 233.32500000000007 318.516 233.12200000000007 311.591 C 232.50900000000007 293.66700000000003 218.65800000000007 274.928 224.76900000000006 261.892 z" stroke-linecap="round" />
</g>
		<g transform="matrix(0.28 0 0 0.28 35.53 34.79)"  >
<path style="stroke: none; stroke-width: 1; stroke-dasharray: none; stroke-linecap: butt; stroke-dashoffset: 0; stroke-linejoin: miter; stroke-miterlimit: 4; fill: none; fill-rule: nonzero; opacity: 1;" vector-effect="non-scaling-stroke"  transform=" translate(-260.76, -302.37)" d="M 224.769 261.892 C 224.769 261.892 242.49 268.002 262.452 263.725 C 262.452 263.725 254.712 300.389 258.175 319.12800000000004 C 258.175 319.12800000000004 261.637 324.016 287.302 333.386 C 287.302 333.386 298.708 336.238 298.30100000000004 341.94100000000003 C 298.30100000000004 341.94100000000003 298.708 343.16400000000004 284.85800000000006 342.75500000000005 C 271.00700000000006 342.34800000000007 257.76700000000005 338.47800000000007 248.80500000000006 339.9030000000001 C 239.23200000000006 341.5330000000001 229.86200000000005 340.9220000000001 228.23300000000006 337.66300000000007 C 226.80700000000007 335.0160000000001 228.64000000000007 328.90400000000005 231.28800000000007 325.23800000000006 C 234.14100000000008 321.36800000000005 233.32500000000007 318.5160000000001 233.12200000000007 311.59100000000007 C 232.50900000000007 293.6670000000001 218.65800000000007 274.92800000000005 224.76900000000006 261.89200000000005 z" stroke-linecap="round" />
</g>
		<g transform="matrix(0.28 0 0 0.28 28.68 -8.2)"  >
<path style="stroke: none; stroke-width: 1; stroke-dasharray: none; stroke-linecap: butt; stroke-dashoffset: 0; stroke-linejoin: miter; stroke-miterlimit: 4; fill: rgb(1,1,1); fill-rule: nonzero; opacity: 1;" vector-effect="non-scaling-stroke"  transform=" translate(-236.18, -147.89)" d="M 208.881 140.699 C 208.881 142.125 224.769 150.068 233.527 151.698 C 242.286 153.327 260.618 151.698 263.469 151.08700000000002 L 263.061 153.93900000000002 C 263.061 153.93900000000002 241.26699999999997 157.198 224.56499999999997 152.717 C 207.86199999999997 148.23600000000002 209.69599999999997 147.217 209.69599999999997 147.217 z" stroke-linecap="round" />
</g>
		<g transform="matrix(0.28 0 0 0.28 14.38 35.72)"  >
<path style="stroke: none; stroke-width: 1; stroke-dasharray: none; stroke-linecap: butt; stroke-dashoffset: 0; stroke-linejoin: miter; stroke-miterlimit: 4; fill: rgb(240,239,239); fill-rule: nonzero; opacity: 1;" vector-effect="non-scaling-stroke"  transform=" translate(-184.78, -305.72)" d="M 174.865 314.443 C 177.309 315.666 186.068 317.906 191.77100000000002 316.68399999999997 C 192.585 316.47999999999996 191.77100000000002 302.62899999999996 194.01200000000003 296.31499999999994 C 197.27100000000002 287.5559999999999 202.56700000000004 280.42699999999996 205.01000000000002 264.9479999999999 C 196.455 264.1329999999999 186.67900000000003 261.89199999999994 181.586 260.26199999999994 C 175.06900000000002 280.22399999999993 177.31 297.33299999999997 174.865 314.4429999999999 z M 188.513 327.276 C 189.939 327.683 190.957 329.312 191.365 328.295 C 192.179 326.461 189.93900000000002 322.999 189.735 320.555 L 189.735 320.351 C 187.90200000000002 318.722 175.477 318.518 176.292 319.332 C 174.866 321.98 172.626 321.573 171.812 326.86899999999997 C 171.405 329.51599999999996 174.66400000000002 327.27599999999995 177.71800000000002 327.07199999999995 C 172.21900000000002 330.73799999999994 165.90500000000003 335.4239999999999 164.88600000000002 339.49699999999996 C 163.66400000000002 345.19999999999993 165.70100000000002 346.83 171.812 349.88599999999997 C 177.108 351.10799999999995 183.42200000000003 351.31199999999995 188.31 351.10799999999995 C 193.81 350.08899999999994 194.829 347.44199999999995 193.199 343.7749999999999 C 190.75300000000001 338.2749999999999 189.12400000000002 331.1459999999999 188.513 327.2759999999999 z" stroke-linecap="round" />
</g>
		<g transform="matrix(0.28 0 0 0.28 27.49 -29.95)"  >
<path style="stroke: none; stroke-width: 1; stroke-dasharray: none; stroke-linecap: butt; stroke-dashoffset: 0; stroke-linejoin: miter; stroke-miterlimit: 4; fill: rgb(1,1,1); fill-rule: nonzero; opacity: 1;" vector-effect="non-scaling-stroke"  transform=" translate(-231.89, -69.76)" d="M 190.753 62.686 C 197.475 66.556 206.84499999999997 65.538 210.307 65.334 C 211.12199999999999 65.334 219.26999999999998 63.908 219.677 64.111 C 220.49099999999999 64.315 220.49099999999999 64.926 220.49099999999999 64.926 C 220.49099999999999 64.926 217.43599999999998 66.555 210.511 66.962 C 203.993 67.369 196.253 66.962 191.976 64.926 C 186.883 62.686 190.753 62.686 190.753 62.686 z M 260.007 66.556 C 261.229 67.36999999999999 269.173 70.426 272.636 74.092 C 275.69100000000003 77.352 274.062 77.148 273.45000000000005 76.333 C 272.636 75.314 266.321 71.03699999999999 263.87700000000007 70.019 C 261.4330000000001 69.00100000000002 258.37700000000007 67.167 258.37700000000007 66.76 C 258.37700000000007 66.35300000000001 260.00700000000006 66.55600000000001 260.00700000000006 66.55600000000001 z" stroke-linecap="round" />
</g>
		<g transform="matrix(0.28 0 0 0.28 17.82 -4.05)"  >
<path style="stroke: none; stroke-width: 1; stroke-dasharray: none; stroke-linecap: butt; stroke-dashoffset: 0; stroke-linejoin: miter; stroke-miterlimit: 4; fill: rgb(240,239,239); fill-rule: nonzero; opacity: 1;" vector-effect="non-scaling-stroke"  transform=" translate(-197.12, -162.8)" d="M 189.734 151.086 C 195.64100000000002 150.679 201.752 152.10500000000002 205.622 156.17800000000003 C 207.65900000000002 158.21500000000003 210.918 160.455 210.51100000000002 162.49200000000002 C 210.51100000000002 163.103 209.288 164.73300000000003 208.27100000000002 165.955 C 207.66000000000003 166.769 205.82700000000003 168.602 205.215 169.214 C 204.401 169.825 201.549 172.066 200.93800000000002 172.47299999999998 C 200.32700000000003 172.88099999999997 199.51200000000003 173.89999999999998 198.901 174.10299999999998 C 196.865 175.12199999999999 194.62400000000002 174.307 192.58700000000002 173.289 C 190.55100000000002 172.26999999999998 192.995 172.06599999999997 190.75400000000002 170.43699999999998 C 185.25500000000002 166.56699999999998 182.199 163.91799999999998 184.44000000000003 156.38199999999998 C 184.64300000000003 154.956 186.88300000000004 153.32599999999996 189.73400000000004 151.08599999999998 z" stroke-linecap="round" />
</g>
		<g transform="matrix(0.28 0 0 0.28 -1.66 0.82)"  >
<path style="stroke: none; stroke-width: 1; stroke-dasharray: none; stroke-linecap: butt; stroke-dashoffset: 0; stroke-linejoin: miter; stroke-miterlimit: 4; fill: rgb(1,1,1); fill-rule: nonzero; opacity: 0.4;" vector-effect="non-scaling-stroke"  transform=" translate(-127.16, -180.32)" d="M 137.795 104.442 C 119.463 111.77499999999999 72.81799999999998 134.99599999999998 59.57899999999999 142.125 C 70.57799999999999 149.05 75.66999999999999 165.752 77.3 182.65800000000002 C 77.503 184.288 77.707 185.71400000000003 77.911 187.34300000000002 C 78.114 188.769 78.318 189.787 78.521 190.39900000000003 C 78.521 190.60300000000004 78.521 191.01000000000002 78.725 191.21300000000002 C 90.743 158.42000000000002 133.72 123.79300000000002 135.35 121.14500000000002 C 136.164 119.92300000000003 134.331 114.62700000000002 137.183 109.53600000000003 C 140.85 103.01600000000003 147.98 100.16400000000003 137.795 104.44200000000004 z M 181.384 258.226 C 190.753 239.487 190.957 221.562 190.753 200.582 C 190.753 191.82299999999998 197.06699999999998 179.398 193.809 182.861 C 181.587 196.507 150.831 222.173 128.629 223.59799999999998 C 159.793 222.57999999999998 172.01399999999998 238.26399999999998 181.384 258.226 z" stroke-linecap="round" />
</g>
		<g transform="matrix(0.28 0 0 0.28 -11.98 -12.64)"  >
<path style="stroke: none; stroke-width: 1; stroke-dasharray: none; stroke-linecap: butt; stroke-dashoffset: 0; stroke-linejoin: miter; stroke-miterlimit: 4; fill: rgb(1,1,1); fill-rule: nonzero; opacity: 1;" vector-effect="non-scaling-stroke"  transform=" translate(-90.05, -131.94)" d="M 41.654 159.437 C 53.264 151.086 113.352 119.108 127.814 114.626 C 142.275 109.941 137.79399999999998 104.441 137.79399999999998 104.441 C 137.79399999999998 104.441 79.13199999999998 129.698 44.097999999999985 151.493" stroke-linecap="round" />
</g>
		<g transform="matrix(0.28 0 0 0.28 23.47 -6.49)"  >
<path style="stroke: none; stroke-width: 1; stroke-dasharray: none; stroke-linecap: butt; stroke-dashoffset: 0; stroke-linejoin: miter; stroke-miterlimit: 4; fill: rgb(1,1,1); fill-rule: nonzero; opacity: 0.4;" vector-effect="non-scaling-stroke"  transform=" translate(-217.43, -154.04)" d="M 212.751 100.572 C 208.066 98.739 204.4 104.239 205.622 109.535 C 206.84500000000003 114.831 217.84400000000002 120.737 217.23200000000003 140.088 C 216.82500000000002 155.976 213.36200000000002 162.493 213.36200000000002 162.493 L 205.622 152.71699999999998 C 205.622 152.71699999999998 204.4 130.718 201.752 127.45899999999999 C 199.10500000000002 124.19999999999999 190.75300000000001 118.29299999999999 187.494 115.23799999999999 C 184.235 112.18199999999999 191.16 108.10899999999998 190.753 102.40499999999999 C 190.34599999999998 96.90599999999999 194.21599999999998 85.90699999999998 194.21599999999998 85.90699999999998 z M 241.064 187.34199999999998 C 240.65699999999998 202.618 244.12 225.22799999999998 245.545 236.024 C 246.97099999999998 246.819 248.80399999999997 247.63400000000001 245.545 252.523 C 242.286 257.20799999999997 238.009 264.948 238.009 264.948 L 223.95399999999998 263.72499999999997 C 223.95399999999998 263.72499999999997 235.15699999999998 249.46699999999996 235.76699999999997 246.81899999999996 C 236.37799999999996 244.17199999999997 230.06399999999996 224.00699999999995 230.06399999999996 224.00699999999995 z M 213.974 44.76199999999997 C 216.826 51.074999999999974 220.28799999999998 53.92699999999997 225.78699999999998 55.760999999999974 C 229.04599999999996 56.982999999999976 241.878 58.61299999999997 246.97099999999998 52.90899999999998 C 249.21099999999998 50.260999999999974 247.78499999999997 43.13199999999998 247.78499999999997 43.13199999999998 L 236.17499999999995 52.500999999999976 L 220.49099999999996 49.64999999999998 L 218.65799999999996 44.964999999999975 z" stroke-linecap="round" />
</g>
		<g transform="matrix(0.28 0 0 0.28 29.47 -31.63)"  >
<path style="stroke: rgb(1,1,1); stroke-width: 1.586; stroke-dasharray: none; stroke-linecap: butt; stroke-dashoffset: 0; stroke-linejoin: round; stroke-miterlimit: 10; fill: rgb(138,198,64); fill-rule: nonzero; opacity: 1;" vector-effect="non-scaling-stroke"  transform=" translate(-238.98, -63.71)" d="M 215.195 58.816 C 220.49099999999999 62.279 233.731 65.538 237.397 66.149 C 241.063 66.963 246.97 62.279 249.822 61.057 C 252.87800000000001 59.631 258.174 58.816 264.284 64.316 C 264.895 64.927 262.858 67.575 262.858 67.575 C 262.654 67.37100000000001 261.432 67.37100000000001 259.802 66.556 C 258.173 65.742 256.747 65.13 254.30300000000003 65.334 C 244.11800000000002 66.556 242.48900000000003 70.019 233.52700000000002 67.98100000000001 C 224.565 65.94300000000001 222.324 64.31500000000001 213.56600000000003 64.72200000000001" stroke-linecap="round" />
</g>
		<g transform="matrix(0.28 0 0 0.28 29.71 -31.5)"  >
<path style="stroke: none; stroke-width: 1; stroke-dasharray: none; stroke-linecap: butt; stroke-dashoffset: 0; stroke-linejoin: miter; stroke-miterlimit: 4; fill: rgb(138,198,64); fill-rule: nonzero; opacity: 1;" vector-effect="non-scaling-stroke"  transform=" translate(-239.84, -64.19)" d="M 213.362 59.427 C 220.084 62.278999999999996 233.12 65.334 236.786 66.149 C 240.452 66.964 246.359 63.297000000000004 249.211 61.464 C 254.304 58.205 260.821 60.853 263.877 64.316 C 265.913 66.556 266.729 67.982 266.729 68.593 C 266.729 69.407 264.28499999999997 68.593 264.28499999999997 68.593 C 262.859 67.982 261.229 67.77900000000001 260.008 66.96300000000001 C 258.378 66.14900000000002 256.748 64.927 254.30499999999998 65.13000000000001 C 244.11999999999998 66.35300000000001 242.08299999999997 69.81500000000001 233.325 67.778 C 224.567 65.741 222.326 63.90800000000001 212.957 64.518" stroke-linecap="round" />
</g>
		<g transform="matrix(0.28 0 0 0.28 -3.58 6.21)"  >
<path style="stroke: none; stroke-width: 1; stroke-dasharray: none; stroke-linecap: butt; stroke-dashoffset: 0; stroke-linejoin: miter; stroke-miterlimit: 4; fill: rgb(1,1,1); fill-rule: nonzero; opacity: 1;" vector-effect="non-scaling-stroke"  transform=" translate(-120.23, -199.67)" d="M 181.791 249.67 C 181.384 249.26299999999998 182.198 248.856 181.791 248.856 C 179.144 248.856 175.477 246.819 173.439 243.96699999999998 C 164.68099999999998 231.339 151.84799999999998 222.988 128.628 223.599 C 93.79699999999998 224.41299999999998 79.94599999999998 210.15599999999998 77.29899999999998 182.862 C 75.87299999999998 167.993 71.79899999999998 153.531 63.44799999999998 145.38299999999998 L 58.558999999999976 148.439 C 67.92799999999997 156.58599999999998 70.98399999999998 169.826 73.02099999999997 187.954 C 76.27999999999997 215.24800000000002 98.27799999999998 227.877 123.94299999999997 228.284 C 150.62599999999998 228.691 160.19899999999996 234.191 170.17899999999997 247.635 C 173.43799999999996 251.91199999999998 177.10499999999996 253.338 179.95599999999996 253.94899999999998 z" stroke-linecap="round" />
</g>
		<g transform="matrix(0.28 0 0 0.28 39.85 -14.43)"  >
<path style="stroke: none; stroke-width: 1; stroke-dasharray: none; stroke-linecap: butt; stroke-dashoffset: 0; stroke-linejoin: miter; stroke-miterlimit: 4; fill: rgb(1,1,1); fill-rule: nonzero; opacity: 0.4;" vector-effect="non-scaling-stroke"  transform=" translate(-276.3, -125.52)" d="M 276.302 118.7 C 276.913 121.75500000000001 278.54200000000003 127.662 281.80100000000004 130.513 C 283.22800000000007 131.939 283.43100000000004 132.346 282.20900000000006 132.346 C 280.98600000000005 132.346 272.02400000000006 131.939 272.02400000000006 131.939 L 269.58000000000004 127.66199999999999 z" stroke-linecap="round" />
</g>
</g>
</g>
<g transform="matrix(NaN NaN NaN NaN 0 0)"  >
<g style=""   >
</g>
</g>
</svg>