<?xml version="1.0" encoding="UTF-8" standalone="no" ?>
<!DOCTYPE svg PUBLIC "-//W3C//DTD SVG 1.1//EN" "http://www.w3.org/Graphics/SVG/1.1/DTD/svg11.dtd">
<svg xmlns="http://www.w3.org/2000/svg" xmlns:xlink="http://www.w3.org/1999/xlink" version="1.1" width="1080" height="1080" viewBox="0 0 1080 1080" xml:space="preserve">
<desc>Created with Fabric.js 5.2.4</desc>
<defs>
</defs>
<g transform="matrix(1 0 0 1 540 540)" id="1e9fd44f-5aa2-4c82-8b06-5796ee4501c8"  >
<rect style="stroke: none; stroke-width: 1; stroke-dasharray: none; stroke-linecap: butt; stroke-dashoffset: 0; stroke-linejoin: miter; stroke-miterlimit: 4; fill: rgb(255,255,255); fill-rule: nonzero; opacity: 1; visibility: hidden;" vector-effect="non-scaling-stroke"  x="-540" y="-540" rx="0" ry="0" width="1080" height="1080" />
</g>
<g transform="matrix(1 0 0 1 540 540)" id="99798a7d-4333-43df-a0cb-401b90230852"  >
</g>
<g transform="matrix(2.2 0 0 2.2 468.99 540)"  >
<g style=""   >
		<g transform="matrix(0.11 0 0 0.11 0 3.01)"  >
<path style="stroke: none; stroke-width: 1; stroke-dasharray: none; stroke-linecap: butt; stroke-dashoffset: 0; stroke-linejoin: miter; stroke-miterlimit: 4; fill: rgb(97,218,251); fill-rule: nonzero; opacity: 1;" vector-effect="non-scaling-stroke"  transform=" translate(-421, -296.45)" d="M 666.3 296.5 C 666.3 264 625.5999999999999 233.2 563.1999999999999 214.1 C 577.5999999999999 150.5 571.1999999999999 99.89999999999999 542.9999999999999 83.69999999999999 C 536.4999999999999 79.89999999999999 528.8999999999999 78.1 520.5999999999999 78.1 L 520.5999999999999 100.39999999999999 C 525.1999999999999 100.39999999999999 528.8999999999999 101.3 531.9999999999999 102.99999999999999 C 545.5999999999999 110.79999999999998 551.4999999999999 140.5 546.8999999999999 178.7 C 545.7999999999998 188.1 543.9999999999999 198 541.7999999999998 208.1 C 522.1999999999998 203.29999999999998 500.79999999999984 199.6 478.29999999999984 197.2 C 464.79999999999984 178.7 450.79999999999984 161.89999999999998 436.6999999999998 147.2 C 469.29999999999984 116.89999999999999 499.8999999999998 100.29999999999998 520.6999999999998 100.29999999999998 L 520.6999999999998 77.99999999999999 C 493.1999999999998 77.99999999999999 457.1999999999998 97.6 420.79999999999984 131.6 C 384.39999999999986 97.8 348.39999999999986 78.39999999999999 320.89999999999986 78.39999999999999 L 320.89999999999986 100.69999999999999 C 341.59999999999985 100.69999999999999 372.29999999999984 117.19999999999999 404.89999999999986 147.29999999999998 C 390.89999999999986 161.99999999999997 376.89999999999986 178.7 363.59999999999985 197.2 C 340.99999999999983 199.6 319.59999999999985 203.29999999999998 299.99999999999983 208.2 C 297.6999999999998 198.2 295.99999999999983 188.5 294.79999999999984 179.2 C 290.09999999999985 141 295.89999999999986 111.29999999999998 309.39999999999986 103.39999999999999 C 312.39999999999986 101.6 316.29999999999984 100.8 320.89999999999986 100.8 L 320.89999999999986 78.5 C 312.4999999999999 78.5 304.89999999999986 80.3 298.29999999999984 84.1 C 270.1999999999998 100.3 263.89999999999986 150.8 278.39999999999986 214.2 C 216.19999999999987 233.39999999999998 175.69999999999987 264.09999999999997 175.69999999999987 296.5 C 175.69999999999987 329 216.39999999999986 359.8 278.79999999999984 378.9 C 264.39999999999986 442.5 270.79999999999984 493.09999999999997 298.99999999999983 509.29999999999995 C 305.49999999999983 513.0999999999999 313.09999999999985 514.9 321.49999999999983 514.9 C 348.99999999999983 514.9 384.99999999999983 495.29999999999995 421.39999999999986 461.29999999999995 C 457.79999999999984 495.09999999999997 493.79999999999984 514.5 521.2999999999998 514.5 C 529.6999999999998 514.5 537.2999999999998 512.7 543.8999999999999 508.9 C 571.9999999999999 492.7 578.2999999999998 442.2 563.7999999999998 378.79999999999995 C 625.7999999999998 359.69999999999993 666.2999999999998 328.9 666.2999999999998 296.49999999999994 z M 536.0999999999999 229.8 C 532.3999999999999 242.70000000000002 527.8 256 522.5999999999999 269.3 C 518.4999999999999 261.3 514.1999999999999 253.3 509.4999999999999 245.3 C 504.89999999999986 237.3 499.9999999999999 229.5 495.0999999999999 221.9 C 509.2999999999999 224 522.9999999999999 226.6 536.0999999999999 229.8 z M 490.2999999999999 336.3 C 482.4999999999999 349.8 474.4999999999999 362.6 466.1999999999999 374.5 C 451.2999999999999 375.8 436.1999999999999 376.5 420.9999999999999 376.5 C 405.89999999999986 376.5 390.7999999999999 375.8 375.9999999999999 374.6 C 367.6999999999999 362.70000000000005 359.5999999999999 350 351.7999999999999 336.6 C 344.1999999999999 323.5 337.2999999999999 310.20000000000005 330.9999999999999 296.8 C 337.1999999999999 283.40000000000003 344.1999999999999 270 351.6999999999999 256.90000000000003 C 359.4999999999999 243.40000000000003 367.4999999999999 230.60000000000002 375.7999999999999 218.70000000000005 C 390.6999999999999 217.40000000000003 405.7999999999999 216.70000000000005 420.9999999999999 216.70000000000005 C 436.0999999999999 216.70000000000005 451.1999999999999 217.40000000000003 465.9999999999999 218.60000000000005 C 474.2999999999999 230.50000000000006 482.39999999999986 243.20000000000005 490.1999999999999 256.6 C 497.7999999999999 269.70000000000005 504.6999999999999 283 510.9999999999999 296.40000000000003 C 504.6999999999999 309.8 497.7999999999999 323.20000000000005 490.2999999999999 336.3 z M 522.5999999999999 323.3 C 527.9999999999999 336.7 532.5999999999999 350.1 536.3999999999999 363.1 C 523.2999999999998 366.3 509.4999999999999 369 495.1999999999999 371.1 C 500.09999999999985 363.40000000000003 504.9999999999999 355.5 509.59999999999985 347.40000000000003 C 514.1999999999998 339.40000000000003 518.4999999999999 331.3 522.5999999999999 323.3 z M 421.19999999999993 430 C 411.8999999999999 420.4 402.5999999999999 409.7 393.3999999999999 398 C 402.3999999999999 398.4 411.5999999999999 398.7 420.8999999999999 398.7 C 430.2999999999999 398.7 439.5999999999999 398.5 448.69999999999993 398 C 439.69999999999993 409.7 430.3999999999999 420.4 421.19999999999993 430 z M 346.79999999999995 371.1 C 332.59999999999997 369 318.9 366.40000000000003 305.79999999999995 363.20000000000005 C 309.49999999999994 350.30000000000007 314.09999999999997 337.00000000000006 319.29999999999995 323.70000000000005 C 323.4 331.70000000000005 327.69999999999993 339.70000000000005 332.4 347.70000000000005 C 337.1 355.70000000000005 341.9 363.50000000000006 346.79999999999995 371.1 z M 420.69999999999993 163.00000000000003 C 429.99999999999994 172.60000000000002 439.29999999999995 183.30000000000004 448.49999999999994 195.00000000000003 C 439.49999999999994 194.60000000000002 430.29999999999995 194.30000000000004 420.99999999999994 194.30000000000004 C 411.59999999999997 194.30000000000004 402.29999999999995 194.50000000000003 393.19999999999993 195.00000000000003 C 402.19999999999993 183.30000000000004 411.49999999999994 172.60000000000002 420.69999999999993 163.00000000000003 z M 346.69999999999993 221.90000000000003 C 341.79999999999995 229.60000000000002 336.8999999999999 237.50000000000003 332.29999999999995 245.60000000000002 C 327.69999999999993 253.60000000000002 323.4 261.6 319.29999999999995 269.6 C 313.9 256.20000000000005 309.29999999999995 242.8 305.49999999999994 229.8 C 318.59999999999997 226.70000000000002 332.3999999999999 224 346.69999999999993 221.9 z M 256.19999999999993 347.1 C 220.79999999999993 332 197.89999999999992 312.20000000000005 197.89999999999992 296.5 C 197.89999999999992 280.79999999999995 220.79999999999993 260.9 256.19999999999993 245.9 C 264.79999999999995 242.20000000000002 274.19999999999993 238.9 283.8999999999999 235.8 C 289.5999999999999 255.4 297.0999999999999 275.8 306.3999999999999 296.7 C 297.19999999999993 317.5 289.7999999999999 337.8 284.19999999999993 357.3 C 274.29999999999995 354.2 264.8999999999999 350.8 256.19999999999993 347.1 z M 309.99999999999994 490 C 296.3999999999999 482.2 290.49999999999994 452.5 295.09999999999997 414.3 C 296.2 404.90000000000003 297.99999999999994 395 300.2 384.90000000000003 C 319.8 389.70000000000005 341.2 393.40000000000003 363.7 395.8 C 377.2 414.3 391.2 431.1 405.3 445.8 C 372.7 476.1 342.1 492.7 321.3 492.7 C 316.8 492.59999999999997 313 491.7 310 490 z M 547.1999999999999 413.8 C 551.9 452 546.0999999999999 481.70000000000005 532.5999999999999 489.6 C 529.5999999999999 491.40000000000003 525.6999999999999 492.20000000000005 521.0999999999999 492.20000000000005 C 500.3999999999999 492.20000000000005 469.69999999999993 475.70000000000005 437.0999999999999 445.6 C 451.0999999999999 430.90000000000003 465.0999999999999 414.20000000000005 478.3999999999999 395.70000000000005 C 500.99999999999994 393.30000000000007 522.3999999999999 389.6 541.9999999999999 384.70000000000005 C 544.2999999999998 394.80000000000007 546.0999999999999 404.50000000000006 547.1999999999999 413.80000000000007 z M 585.6999999999999 347.1 C 577.0999999999999 350.8 567.6999999999999 354.1 557.9999999999999 357.20000000000005 C 552.2999999999998 337.6 544.7999999999998 317.20000000000005 535.4999999999999 296.30000000000007 C 544.6999999999999 275.50000000000006 552.0999999999999 255.20000000000007 557.6999999999999 235.70000000000007 C 567.5999999999999 238.80000000000007 576.9999999999999 242.20000000000007 585.8 245.90000000000006 C 621.1999999999999 261.00000000000006 644.0999999999999 280.80000000000007 644.0999999999999 296.50000000000006 C 643.9999999999999 312.20000000000005 621.0999999999999 332.1000000000001 585.6999999999999 347.1000000000001 z" stroke-linecap="round" />
</g>
		<g transform="matrix(0.11 0 0 0.11 -0.01 3.02)"  >
<circle style="stroke: none; stroke-width: 1; stroke-dasharray: none; stroke-linecap: butt; stroke-dashoffset: 0; stroke-linejoin: miter; stroke-miterlimit: 4; fill: rgb(97,218,251); fill-rule: nonzero; opacity: 1;" vector-effect="non-scaling-stroke"  cx="0" cy="0" r="45.7" />
</g>
</g>
</g>
</svg>